<?xml version="1.0" encoding="UTF-8"?>
<svg id="Capa_2" data-name="Capa 2" xmlns="http://www.w3.org/2000/svg" viewBox="0 0 193.61 193.61">
  <defs>
    <style>
      .cls-1, .cls-2 {
        fill: #fff;
      }

      .cls-3 {
        fill: #191919;
      }

      .cls-2, .cls-4, .cls-5 {
        stroke: #191919;
        stroke-miterlimit: 10;
        stroke-width: 2.76px;
      }

      .cls-4 {
        stroke-linecap: round;
      }

      .cls-4, .cls-5 {
        fill: none;
      }
    </style>
  </defs>
  <g id="Layer_1" data-name="Layer 1">
    <g>
      <rect class="cls-1" width="193.61" height="193.61"/>
      <g>
        <path class="cls-1" d="m64.36,97.46l-2.12,14.42s-10.33-21.46-7.94-39.43,5.1-32.69,9.16-33.71,12.07,8.24,14.99,16.78,7.28,30.49,7.28,30.49l-13.75,7.7-7.62,3.75"/>
        <path class="cls-1" d="m126.52,97.11l1.58,14.77s7.71-21.99,5.92-40.4c-1.79-18.41-3.81-33.49-6.84-34.54s-9.01,8.45-11.19,17.19-5.44,31.24-5.44,31.24l10.26,7.89,5.69,3.84"/>
        <g>
          <ellipse class="cls-3" cx="96.45" cy="115.34" rx="40.95" ry="34.67"/>
          <path class="cls-5" d="m79.16,85.55s-3.9-35.13-14.8-45.76"/>
          <path class="cls-5" d="m58.22,106.16c-8.77-36.63,2.04-62.2,3.63-64.39s1.79-4.98,8.37-1.03c14.35,10.33,18.93,40.48,18.93,40.48"/>
          <path class="cls-5" d="m112.61,85.55s2.1-38.53,13.01-49.16"/>
          <path class="cls-5" d="m102.62,81.22s5.26-34.02,19.6-44.35c6.58-3.95,6.59,3.82,7.77,6.69,1.03,2.51,4.28,26.83,3,58.94"/>
          <path class="cls-2" d="m87.16,112.95c2.42-6.65-3.14-15.24-10.76-16.14-7.14-.84-14.4,5.27-14.15,12.15.2,5.58,5.28,9.9,10.36,10.96,5.71,1.19,12.56-1.51,14.55-6.97Z"/>
          <path class="cls-2" d="m105.46,112.95c-2.42-6.65,3.14-15.24,10.76-16.14,7.14-.84,14.4,5.27,14.15,12.15-.2,5.58-5.28,9.9-10.36,10.96-5.71,1.19-12.56-1.51-14.55-6.97Z"/>
          <path class="cls-3" d="m82.35,107.24c-.29-.91-1.13-3.48-2.33-3.49-1.26-.01-2.17,2.82-2.51,3.85-.34,1.06-.94,2.98-.36,5.28.19.74.83,3.33,2.24,3.49,1.46.17,2.73-2.41,2.86-2.68,1.31-2.67.43-5.39.09-6.44Z"/>
          <path class="cls-3" d="m116,107.24c-.29-.91-1.13-3.48-2.33-3.49-1.26-.01-2.17,2.82-2.51,3.85-.34,1.06-.94,2.98-.36,5.28.19.74.83,3.33,2.24,3.49,1.46.17,2.73-2.41,2.86-2.68,1.31-2.67.43-5.39.09-6.44Z"/>
          <path class="cls-4" d="m129.51,121.2s7.16-3.04,20.85-3.58"/>
          <path class="cls-4" d="m128.08,126.84s5.01-2.51,24.43,2.33"/>
          <path class="cls-4" d="m63.29,122.01s-5.1-3.31-22.19-3.31"/>
          <path class="cls-4" d="m64.36,125.23s-15.21.72-22.9,4.3"/>
          <path class="cls-1" d="m92.6,116.8c.22-1.04,2.64-1.36,3.9-1.36.53,0,3.1,0,3.48,1.18.35,1.06-1.15,2.8-2.83,3.13-2.3.45-4.79-1.78-4.55-2.95Z"/>
          <path class="cls-3" d="m64.36,38.87s13.25,21.25,15.58,48.03,9.21-2.79,9.21-2.79c0,0-2.15-37.48-24.79-45.24Z"/>
          <path class="cls-3" d="m127.41,35.21s-13.25,21.25-15.58,48.03c-2.32,26.78-9.21-2.79-9.21-2.79,0,0,2.15-37.48,24.79-45.24Z"/>
        </g>
      </g>
    </g>
  </g>
</svg>