<?xml version="1.0" encoding="UTF-8"?>
<svg id="Capa_2" data-name="Capa 2" xmlns="http://www.w3.org/2000/svg" viewBox="0 0 206.74 209.38">
  <defs>
    <style>
      .cls-1 {
        fill: #fff;
      }

      .cls-2 {
        fill: #191919;
      }

      .cls-3, .cls-4, .cls-5, .cls-6 {
        fill: none;
        stroke-miterlimit: 10;
      }

      .cls-3, .cls-5, .cls-6 {
        stroke-width: 5px;
      }

      .cls-3, .cls-6 {
        stroke: #191919;
      }

      .cls-4 {
        stroke-width: 2px;
      }

      .cls-4, .cls-5 {
        stroke: #fff;
      }

      .cls-4, .cls-5, .cls-6 {
        stroke-linecap: round;
      }
    </style>
  </defs>
  <g id="Layer_1" data-name="Layer 1">
    <g>
      <ellipse class="cls-2" cx="102.72" cy="146.59" rx="74.15" ry="62.78"/>
      <path class="cls-3" d="m71.42,92.64s-7.06-63.61-26.8-82.86"/>
      <path class="cls-3" d="m89.51,84.81S81.21,30.2,55.23,11.5c-11.91-7.16-12.27-2.11-15.15,1.86s-22.45,50.27-6.58,116.6"/>
      <path class="cls-3" d="m131.99,92.64s3.81-69.77,23.55-89.03"/>
      <path class="cls-3" d="m113.9,84.81s9.52-61.61,35.5-80.32c11.91-7.16,11.93,6.91,14.07,12.12,1.87,4.54,7.74,48.58,5.44,106.73"/>
      <path class="cls-6" d="m162.59,157.21s12.96-5.51,37.75-6.48"/>
      <path class="cls-6" d="m160,167.42s9.07-4.54,44.24,4.21"/>
      <path class="cls-6" d="m42.69,158.67s-9.24-6-40.19-6"/>
      <path class="cls-6" d="m44.62,164.51s-27.54,1.3-41.47,7.78"/>
      <path class="cls-1" d="m95.75,149.24c.4-1.89,4.79-2.47,7.06-2.46.96,0,5.61.02,6.31,2.14.63,1.91-2.09,5.07-5.13,5.67-4.17.81-8.68-3.23-8.23-5.35Z"/>
      <path class="cls-2" d="m44.62,8.12s24,38.48,28.21,86.98c4.21,48.5,16.68-5.05,16.68-5.05,0,0-3.9-67.87-44.89-81.93Z"/>
      <path class="cls-2" d="m158.79,1.5s-24,38.48-28.21,86.98c-4.21,48.5-16.68-5.05-16.68-5.05,0,0,3.9-67.87,44.89-81.93Z"/>
      <path class="cls-5" d="m44.27,131.57c-.84,12.64,9.47,23.25,21.56,22.99,11.93-.26,21.72-11.02,20.6-23.47"/>
      <path class="cls-5" d="m119.92,131.57c-.84,12.64,9.47,23.25,21.56,22.99,11.93-.26,21.72-11.02,20.6-23.47"/>
      <g>
        <path class="cls-4" d="m102.48,160.65c-.14,2.12,1.59,3.89,3.61,3.85,2-.04,3.64-1.85,3.45-3.93"/>
        <path class="cls-4" d="m95.39,160.65c-.14,2.12,1.59,3.89,3.61,3.85,2-.04,3.64-1.85,3.45-3.93"/>
      </g>
    </g>
  </g>
</svg>