<?xml version="1.0" encoding="UTF-8"?>
<svg id="Capa_2" data-name="Capa 2" xmlns="http://www.w3.org/2000/svg" viewBox="0 0 206.74 209.38">
  <defs>
    <style>
      .cls-1, .cls-2 {
        fill: #fff;
      }

      .cls-1, .cls-3, .cls-4 {
        stroke: #191919;
        stroke-miterlimit: 10;
        stroke-width: 5px;
      }

      .cls-5 {
        fill: #191919;
      }

      .cls-3, .cls-4 {
        fill: none;
      }

      .cls-4 {
        stroke-linecap: round;
      }
    </style>
  </defs>
  <g id="Layer_1" data-name="Layer 1">
    <g>
      <ellipse class="cls-5" cx="102.72" cy="146.59" rx="74.15" ry="62.78"/>
      <path class="cls-3" d="m71.42,92.64s-7.06-63.61-26.8-82.86"/>
      <path class="cls-3" d="m89.51,84.81S81.21,30.2,55.23,11.5c-11.91-7.16-12.27-2.11-15.15,1.86s-22.45,50.27-6.58,116.6"/>
      <path class="cls-3" d="m131.99,92.64s3.81-69.77,23.55-89.03"/>
      <path class="cls-3" d="m113.9,84.81s9.52-61.61,35.5-80.32c11.91-7.16,11.93,6.91,14.07,12.12,1.87,4.54,7.74,48.58,5.44,106.73"/>
      <path class="cls-1" d="m85.9,142.26c4.38-12.04-5.69-27.6-19.48-29.23-12.92-1.53-26.08,9.54-25.62,22.01.37,10.11,9.57,17.93,18.76,19.85,10.34,2.15,22.74-2.74,26.34-12.63Z"/>
      <path class="cls-1" d="m119.04,142.26c-4.38-12.04,5.69-27.6,19.48-29.23,12.92-1.53,26.08,9.54,25.62,22.01-.37,10.11-9.57,17.93-18.76,19.85-10.34,2.15-22.74-2.74-26.34-12.63Z"/>
      <path class="cls-5" d="m77.2,131.94c-.53-1.64-2.04-6.3-4.21-6.32-2.28-.02-3.94,5.11-4.54,6.97-.62,1.92-1.69,5.39-.65,9.56.34,1.34,1.51,6.02,4.05,6.32,2.65.31,4.94-4.37,5.19-4.86,2.38-4.84.78-9.76.16-11.67Z"/>
      <path class="cls-5" d="m138.13,131.94c-.53-1.64-2.04-6.3-4.21-6.32-2.28-.02-3.94,5.11-4.54,6.97-.62,1.92-1.69,5.39-.65,9.56.34,1.34,1.51,6.02,4.05,6.32,2.65.31,4.94-4.37,5.19-4.86,2.38-4.84.78-9.76.16-11.67Z"/>
      <path class="cls-4" d="m162.59,157.21s12.96-5.51,37.75-6.48"/>
      <path class="cls-4" d="m160,167.42s9.07-4.54,44.24,4.21"/>
      <path class="cls-4" d="m42.69,158.67s-9.24-6-40.19-6"/>
      <path class="cls-4" d="m44.62,164.51s-27.54,1.3-41.47,7.78"/>
      <path class="cls-2" d="m95.75,149.24c.4-1.89,4.79-2.47,7.06-2.46.96,0,5.61.02,6.31,2.14.63,1.91-2.09,5.07-5.13,5.67-4.17.81-8.68-3.23-8.23-5.35Z"/>
      <path class="cls-5" d="m44.62,8.12s24,38.48,28.21,86.98,16.68-5.05,16.68-5.05c0,0-3.9-67.87-44.89-81.93Z"/>
      <path class="cls-5" d="m158.79,1.5s-24,38.48-28.21,86.98c-4.21,48.5-16.68-5.05-16.68-5.05,0,0,3.9-67.87,44.89-81.93Z"/>
    </g>
  </g>
</svg>