<?xml version="1.0" encoding="UTF-8"?>
<svg id="Capa_2" data-name="Capa 2" xmlns="http://www.w3.org/2000/svg" viewBox="0 0 150.1 150.1">
  <defs>
    <style>
      .cls-1 {
        fill: none;
        stroke: #000100;
        stroke-linecap: round;
        stroke-linejoin: round;
        stroke-width: 18px;
      }
    </style>
  </defs>
  <g id="Layer_1" data-name="Layer 1">
    <path class="cls-1" d="m83.42,14.07l16.67,31.93c.89,1.71,2.29,3.11,4,4l31.93,16.67c6.77,3.53,6.77,13.21,0,16.74l-31.93,16.67c-1.71.89-3.11,2.29-4,4l-16.67,31.93c-3.53,6.77-13.21,6.77-16.74,0l-16.67-31.93c-.89-1.71-2.29-3.11-4-4l-31.93-16.67c-6.77-3.53-6.77-13.21,0-16.74l31.93-16.67c1.71-.89,3.11-2.29,4-4l16.67-31.93c3.53-6.77,13.21-6.77,16.74,0Z"/>
  </g>
</svg>