<?xml version="1.0" encoding="UTF-8"?>
<svg id="Capa_2" data-name="Capa 2" xmlns="http://www.w3.org/2000/svg" viewBox="0 0 149.83 144.51">
  <defs>
    <style>
      .cls-1 {
        fill: none;
        stroke: #000100;
        stroke-linecap: round;
        stroke-linejoin: round;
        stroke-width: 18px;
      }
    </style>
  </defs>
  <g id="Layer_1" data-name="Layer 1">
    <path class="cls-1" d="m84.81,14.54l13.96,22.76c1.61,2.62,4.19,4.5,7.18,5.22l25.96,6.24c8.43,2.03,11.75,12.24,6.12,18.83l-17.33,20.31c-2,2.34-2.98,5.38-2.74,8.45l2.08,26.62c.68,8.64-8.01,14.95-16.02,11.64l-24.67-10.21c-2.84-1.18-6.04-1.18-8.88,0l-24.67,10.21c-8.01,3.31-16.7-3-16.02-11.64l2.08-26.62c.24-3.07-.75-6.11-2.74-8.45l-17.33-20.31c-5.63-6.59-2.31-16.8,6.12-18.83l25.96-6.24c2.99-.72,5.58-2.6,7.18-5.22l13.96-22.76c4.53-7.39,15.27-7.39,19.8,0Z"/>
  </g>
</svg>