<?xml version="1.0" encoding="UTF-8"?>
<svg id="Capa_2" data-name="Capa 2" xmlns="http://www.w3.org/2000/svg" viewBox="0 0 92.33 89.81">
  <defs>
    <style>
      .cls-1 {
        fill: none;
        stroke: #000100;
        stroke-linecap: round;
        stroke-linejoin: round;
        stroke-width: 16px;
      }
    </style>
  </defs>
  <g id="Layer_1" data-name="Layer 1">
    <path class="cls-1" d="m73.34,16.56l-1.65,15.38c-.19,1.77.33,3.55,1.45,4.94l9.7,12.05c3.15,3.91,1.06,9.77-3.85,10.8l-15.13,3.19c-1.74.37-3.27,1.41-4.25,2.9l-8.46,12.95c-2.75,4.2-8.96,4.03-11.46-.33l-7.71-13.41c-.89-1.55-2.35-2.68-4.07-3.14l-14.93-4.04c-4.85-1.31-6.6-7.28-3.23-11l10.37-11.47c1.2-1.32,1.82-3.06,1.73-4.84l-.77-15.45c-.25-5.01,4.88-8.52,9.47-6.47l14.12,6.32c1.63.73,3.48.78,5.14.15l14.45-5.5c4.69-1.79,9.62,2.01,9.08,7Z"/>
  </g>
</svg>